<?xml version="1.0" encoding="UTF-8"?>
<svg xmlns="http://www.w3.org/2000/svg" viewBox="0 0 1920 1200">
  <defs>
    <radialGradient id="bg" cx="50%" cy="40%" r="80%">
      <stop offset="0%" stop-color="#040a1c"/>
      <stop offset="100%" stop-color="#02050d"/>
    </radialGradient>
    <filter id="glow" x="-50%" y="-50%" width="200%" height="200%">
      <feGaussianBlur stdDeviation="5" result="b"/>
      <feMerge><feMergeNode in="b"/><feMergeNode in="SourceGraphic"/></feMerge>
    </filter>
    <filter id="softglow" x="-50%" y="-50%" width="200%" height="200%">
      <feGaussianBlur stdDeviation="16"/>
    </filter>
    <marker id="ah" viewBox="0 0 12 12" refX="10" refY="6" markerWidth="10" markerHeight="10" orient="auto-start-reverse">
      <path d="M0 0 L12 6 L0 12 L3 6 z" fill="#00d4ff"/>
    </marker>
  </defs>
  <rect width="1920" height="1200" fill="url(#bg)"/>
  <g stroke="#0c1d3f" stroke-width="1" opacity="0.45">
    <path d="M0 120 H1920"/><path d="M0 200 H1920"/><path d="M0 280 H1920"/><path d="M0 360 H1920"/><path d="M0 440 H1920"/><path d="M0 520 H1920"/><path d="M0 600 H1920"/><path d="M0 680 H1920"/><path d="M0 760 H1920"/><path d="M0 840 H1920"/><path d="M0 920 H1920"/><path d="M0 1000 H1920"/><path d="M0 1080 H1920"/><path d="M0 1160 H1920"/>
    <path d="M0 0 V1200"/><path d="M120 0 V1200"/><path d="M240 0 V1200"/><path d="M360 0 V1200"/><path d="M480 0 V1200"/><path d="M600 0 V1200"/><path d="M720 0 V1200"/><path d="M840 0 V1200"/><path d="M960 0 V1200"/><path d="M1080 0 V1200"/><path d="M1200 0 V1200"/><path d="M1320 0 V1200"/><path d="M1440 0 V1200"/><path d="M1560 0 V1200"/><path d="M1680 0 V1200"/><path d="M1800 0 V1200"/>
  </g>
  
<g>
  <text x="40" y="52" fill="#eaf6ff" font-size="22" font-weight="700" letter-spacing="6" font-family="ui-sans-serif,Inter,system-ui">LINUX VPS · HARDENING PIPELINE · 2026</text>
  <text x="40" y="76" fill="#6e9cc0" font-size="12" letter-spacing="4" font-family="ui-monospace,Menlo,monospace">DEPLOY → SECURE → MONITOR → RECOVER · 8 STAGES · 1 OUTCOME</text>
  <g transform="translate(1620,36)">
    <rect width="260" height="36" rx="6" fill="#06122a" stroke="#2a72b8" stroke-width="1"/>
    <circle cx="20" cy="18" r="5" fill="#7cf0a1"><animate attributeName="opacity" values="1;0.2;1" dur="1.4s" repeatCount="indefinite"/></circle>
    <text x="36" y="22" fill="#6e9cc0" font-size="11" letter-spacing="3" font-family="ui-monospace,Menlo,monospace">PIPELINE STATUS: STREAMING</text>
  </g>
</g>
<g transform="translate(820,40)">
  <rect x="-8" y="-8" width="296" height="116" rx="60" fill="#00d4ff" opacity="0.12" filter="url(#softglow)"/>
  <rect width="280" height="100" rx="50" fill="#06122a" stroke="#00d4ff" stroke-width="2"/>
  <text x="140" y="44" text-anchor="middle" fill="#00d4ff" font-size="14" font-weight="700" letter-spacing="5" font-family="ui-monospace,Menlo,monospace">START</text>
  <text x="140" y="68" text-anchor="middle" fill="#e7f6ff" font-size="16" font-weight="700" letter-spacing="2">FRESH LINUX VPS · 2026</text>
  <text x="140" y="86" text-anchor="middle" fill="#6e9cc0" font-size="11" letter-spacing="3" font-family="ui-monospace,Menlo,monospace">UBUNTU 24.04 / DEBIAN 13</text>
</g><g transform="translate(120,220)"><rect x="-8" y="-8" width="416" height="246" rx="20" fill="#f5d547" opacity="0.10" filter="url(#softglow)"><animate attributeName="opacity" values="0.06;0.18;0.06" dur="3.5s" repeatCount="indefinite"/></rect><rect width="400" height="230" rx="16" fill="#06122a" stroke="#f5d547" stroke-width="2"/><rect x="0" y="0" width="400" height="4" rx="2" fill="#f5d547"/><g stroke="#f5d547" stroke-width="1.6" fill="none" opacity="0.9"><path d="M0 18 V8 H10"/><path d="M390 8 H400 V18"/><path d="M400 212 V230 H390"/><path d="M10 230 H0 V212"/></g><rect x="18" y="22" width="44" height="26" rx="6" fill="#f5d547" opacity="0.18" stroke="#f5d547" stroke-width="1"/><text x="40" y="40" text-anchor="middle" fill="#f5d547" font-size="14" font-weight="700" font-family="ui-monospace,Menlo,monospace">01</text><text x="76" y="40" fill="#e7f6ff" font-size="18" font-weight="700" letter-spacing="2" font-family="ui-sans-serif,Inter,system-ui">SECURE SSH</text><text x="76" y="58" fill="#f5d547" font-size="10" letter-spacing="3" font-family="ui-monospace,Menlo,monospace">ACCESS LAYER</text><line x1="18" x2="382" y1="78" y2="78" stroke="#f5d547" stroke-width="1" opacity="0.35"/><rect x="22" y="94" width="3" height="14" fill="#f5d547"/><text x="36" y="104" fill="#c4d8e8" font-size="13" font-family="ui-monospace,Menlo,monospace">Change default port</text><rect x="22" y="122" width="3" height="14" fill="#f5d547"/><text x="36" y="132" fill="#c4d8e8" font-size="13" font-family="ui-monospace,Menlo,monospace">PermitRootLogin no</text><rect x="22" y="150" width="3" height="14" fill="#f5d547"/><text x="36" y="160" fill="#c4d8e8" font-size="13" font-family="ui-monospace,Menlo,monospace">PasswordAuthentication no</text><rect x="22" y="178" width="3" height="14" fill="#f5d547"/><text x="36" y="188" fill="#c4d8e8" font-size="13" font-family="ui-monospace,Menlo,monospace">Key-only auth (ed25519)</text><circle cx="378" cy="34" r="5" fill="#f5d547"><animate attributeName="opacity" values="1;0.25;1" dur="1.6s" repeatCount="indefinite"/></circle></g><g transform="translate(570,220)"><rect x="-8" y="-8" width="416" height="246" rx="20" fill="#b14cff" opacity="0.10" filter="url(#softglow)"><animate attributeName="opacity" values="0.06;0.18;0.06" dur="3.5s" repeatCount="indefinite"/></rect><rect width="400" height="230" rx="16" fill="#06122a" stroke="#b14cff" stroke-width="2"/><rect x="0" y="0" width="400" height="4" rx="2" fill="#b14cff"/><g stroke="#b14cff" stroke-width="1.6" fill="none" opacity="0.9"><path d="M0 18 V8 H10"/><path d="M390 8 H400 V18"/><path d="M400 212 V230 H390"/><path d="M10 230 H0 V212"/></g><rect x="18" y="22" width="44" height="26" rx="6" fill="#b14cff" opacity="0.18" stroke="#b14cff" stroke-width="1"/><text x="40" y="40" text-anchor="middle" fill="#b14cff" font-size="14" font-weight="700" font-family="ui-monospace,Menlo,monospace">02</text><text x="76" y="40" fill="#e7f6ff" font-size="18" font-weight="700" letter-spacing="2" font-family="ui-sans-serif,Inter,system-ui">UFW FIREWALL</text><text x="76" y="58" fill="#b14cff" font-size="10" letter-spacing="3" font-family="ui-monospace,Menlo,monospace">NETWORK LAYER</text><line x1="18" x2="382" y1="78" y2="78" stroke="#b14cff" stroke-width="1" opacity="0.35"/><rect x="22" y="94" width="3" height="14" fill="#b14cff"/><text x="36" y="104" fill="#c4d8e8" font-size="13" font-family="ui-monospace,Menlo,monospace">ufw default deny incoming</text><rect x="22" y="122" width="3" height="14" fill="#b14cff"/><text x="36" y="132" fill="#c4d8e8" font-size="13" font-family="ui-monospace,Menlo,monospace">Allow 22/tcp, 80, 443</text><rect x="22" y="150" width="3" height="14" fill="#b14cff"/><text x="36" y="160" fill="#c4d8e8" font-size="13" font-family="ui-monospace,Menlo,monospace">Rate-limit SSH</text><rect x="22" y="178" width="3" height="14" fill="#b14cff"/><text x="36" y="188" fill="#c4d8e8" font-size="13" font-family="ui-monospace,Menlo,monospace">Enable logging</text><circle cx="378" cy="34" r="5" fill="#b14cff"><animate attributeName="opacity" values="1;0.25;1" dur="1.6s" repeatCount="indefinite"/></circle></g><g transform="translate(1020,220)"><rect x="-8" y="-8" width="416" height="246" rx="20" fill="#00d4ff" opacity="0.10" filter="url(#softglow)"><animate attributeName="opacity" values="0.06;0.18;0.06" dur="3.5s" repeatCount="indefinite"/></rect><rect width="400" height="230" rx="16" fill="#06122a" stroke="#00d4ff" stroke-width="2"/><rect x="0" y="0" width="400" height="4" rx="2" fill="#00d4ff"/><g stroke="#00d4ff" stroke-width="1.6" fill="none" opacity="0.9"><path d="M0 18 V8 H10"/><path d="M390 8 H400 V18"/><path d="M400 212 V230 H390"/><path d="M10 230 H0 V212"/></g><rect x="18" y="22" width="44" height="26" rx="6" fill="#00d4ff" opacity="0.18" stroke="#00d4ff" stroke-width="1"/><text x="40" y="40" text-anchor="middle" fill="#00d4ff" font-size="14" font-weight="700" font-family="ui-monospace,Menlo,monospace">03</text><text x="76" y="40" fill="#e7f6ff" font-size="18" font-weight="700" letter-spacing="2" font-family="ui-sans-serif,Inter,system-ui">FAIL2BAN</text><text x="76" y="58" fill="#00d4ff" font-size="10" letter-spacing="3" font-family="ui-monospace,Menlo,monospace">INTRUSION LAYER</text><line x1="18" x2="382" y1="78" y2="78" stroke="#00d4ff" stroke-width="1" opacity="0.35"/><rect x="22" y="94" width="3" height="14" fill="#00d4ff"/><text x="36" y="104" fill="#c4d8e8" font-size="13" font-family="ui-monospace,Menlo,monospace">jail.local for sshd</text><rect x="22" y="122" width="3" height="14" fill="#00d4ff"/><text x="36" y="132" fill="#c4d8e8" font-size="13" font-family="ui-monospace,Menlo,monospace">Watch /var/log/auth.log</text><rect x="22" y="150" width="3" height="14" fill="#00d4ff"/><text x="36" y="160" fill="#c4d8e8" font-size="13" font-family="ui-monospace,Menlo,monospace">bantime = 1h, findtime 10m</text><rect x="22" y="178" width="3" height="14" fill="#00d4ff"/><text x="36" y="188" fill="#c4d8e8" font-size="13" font-family="ui-monospace,Menlo,monospace">Auto-ban brute force</text><circle cx="378" cy="34" r="5" fill="#00d4ff"><animate attributeName="opacity" values="1;0.25;1" dur="1.6s" repeatCount="indefinite"/></circle></g><g transform="translate(1470,220)"><rect x="-8" y="-8" width="416" height="246" rx="20" fill="#7cf0a1" opacity="0.10" filter="url(#softglow)"><animate attributeName="opacity" values="0.06;0.18;0.06" dur="3.5s" repeatCount="indefinite"/></rect><rect width="400" height="230" rx="16" fill="#06122a" stroke="#7cf0a1" stroke-width="2"/><rect x="0" y="0" width="400" height="4" rx="2" fill="#7cf0a1"/><g stroke="#7cf0a1" stroke-width="1.6" fill="none" opacity="0.9"><path d="M0 18 V8 H10"/><path d="M390 8 H400 V18"/><path d="M400 212 V230 H390"/><path d="M10 230 H0 V212"/></g><rect x="18" y="22" width="44" height="26" rx="6" fill="#7cf0a1" opacity="0.18" stroke="#7cf0a1" stroke-width="1"/><text x="40" y="40" text-anchor="middle" fill="#7cf0a1" font-size="14" font-weight="700" font-family="ui-monospace,Menlo,monospace">04</text><text x="76" y="40" fill="#e7f6ff" font-size="18" font-weight="700" letter-spacing="2" font-family="ui-sans-serif,Inter,system-ui">UNATTENDED UPGRADES</text><text x="76" y="58" fill="#7cf0a1" font-size="10" letter-spacing="3" font-family="ui-monospace,Menlo,monospace">PATCH LAYER</text><line x1="18" x2="382" y1="78" y2="78" stroke="#7cf0a1" stroke-width="1" opacity="0.35"/><rect x="22" y="94" width="3" height="14" fill="#7cf0a1"/><text x="36" y="104" fill="#c4d8e8" font-size="13" font-family="ui-monospace,Menlo,monospace">apt install unattended-upgrades</text><rect x="22" y="122" width="3" height="14" fill="#7cf0a1"/><text x="36" y="132" fill="#c4d8e8" font-size="13" font-family="ui-monospace,Menlo,monospace">dpkg-reconfigure -plow</text><rect x="22" y="150" width="3" height="14" fill="#7cf0a1"/><text x="36" y="160" fill="#c4d8e8" font-size="13" font-family="ui-monospace,Menlo,monospace">Security pocket only</text><rect x="22" y="178" width="3" height="14" fill="#7cf0a1"/><text x="36" y="188" fill="#c4d8e8" font-size="13" font-family="ui-monospace,Menlo,monospace">Reboot policy 03:00</text><circle cx="378" cy="34" r="5" fill="#7cf0a1"><animate attributeName="opacity" values="1;0.25;1" dur="1.6s" repeatCount="indefinite"/></circle></g><g transform="translate(1470,700)"><rect x="-8" y="-8" width="416" height="246" rx="20" fill="#ff8a3d" opacity="0.10" filter="url(#softglow)"><animate attributeName="opacity" values="0.06;0.18;0.06" dur="3.5s" repeatCount="indefinite"/></rect><rect width="400" height="230" rx="16" fill="#06122a" stroke="#ff8a3d" stroke-width="2"/><rect x="0" y="0" width="400" height="4" rx="2" fill="#ff8a3d"/><g stroke="#ff8a3d" stroke-width="1.6" fill="none" opacity="0.9"><path d="M0 18 V8 H10"/><path d="M390 8 H400 V18"/><path d="M400 212 V230 H390"/><path d="M10 230 H0 V212"/></g><rect x="18" y="22" width="44" height="26" rx="6" fill="#ff8a3d" opacity="0.18" stroke="#ff8a3d" stroke-width="1"/><text x="40" y="40" text-anchor="middle" fill="#ff8a3d" font-size="14" font-weight="700" font-family="ui-monospace,Menlo,monospace">05</text><text x="76" y="40" fill="#e7f6ff" font-size="18" font-weight="700" letter-spacing="2" font-family="ui-sans-serif,Inter,system-ui">ROOTKIT SCANS</text><text x="76" y="58" fill="#ff8a3d" font-size="10" letter-spacing="3" font-family="ui-monospace,Menlo,monospace">DETECTION LAYER</text><line x1="18" x2="382" y1="78" y2="78" stroke="#ff8a3d" stroke-width="1" opacity="0.35"/><rect x="22" y="94" width="3" height="14" fill="#ff8a3d"/><text x="36" y="104" fill="#c4d8e8" font-size="13" font-family="ui-monospace,Menlo,monospace">rkhunter --propupd</text><rect x="22" y="122" width="3" height="14" fill="#ff8a3d"/><text x="36" y="132" fill="#c4d8e8" font-size="13" font-family="ui-monospace,Menlo,monospace">chkrootkit weekly cron</text><rect x="22" y="150" width="3" height="14" fill="#ff8a3d"/><text x="36" y="160" fill="#c4d8e8" font-size="13" font-family="ui-monospace,Menlo,monospace">AIDE file integrity</text><rect x="22" y="178" width="3" height="14" fill="#ff8a3d"/><text x="36" y="188" fill="#c4d8e8" font-size="13" font-family="ui-monospace,Menlo,monospace">Mail diff on change</text><circle cx="378" cy="34" r="5" fill="#ff8a3d"><animate attributeName="opacity" values="1;0.25;1" dur="1.6s" repeatCount="indefinite"/></circle></g><g transform="translate(1020,700)"><rect x="-8" y="-8" width="416" height="246" rx="20" fill="#ff5577" opacity="0.10" filter="url(#softglow)"><animate attributeName="opacity" values="0.06;0.18;0.06" dur="3.5s" repeatCount="indefinite"/></rect><rect width="400" height="230" rx="16" fill="#06122a" stroke="#ff5577" stroke-width="2"/><rect x="0" y="0" width="400" height="4" rx="2" fill="#ff5577"/><g stroke="#ff5577" stroke-width="1.6" fill="none" opacity="0.9"><path d="M0 18 V8 H10"/><path d="M390 8 H400 V18"/><path d="M400 212 V230 H390"/><path d="M10 230 H0 V212"/></g><rect x="18" y="22" width="44" height="26" rx="6" fill="#ff5577" opacity="0.18" stroke="#ff5577" stroke-width="1"/><text x="40" y="40" text-anchor="middle" fill="#ff5577" font-size="14" font-weight="700" font-family="ui-monospace,Menlo,monospace">06</text><text x="76" y="40" fill="#e7f6ff" font-size="18" font-weight="700" letter-spacing="2" font-family="ui-sans-serif,Inter,system-ui">KERNEL HARDENING</text><text x="76" y="58" fill="#ff5577" font-size="10" letter-spacing="3" font-family="ui-monospace,Menlo,monospace">KERNEL LAYER</text><line x1="18" x2="382" y1="78" y2="78" stroke="#ff5577" stroke-width="1" opacity="0.35"/><rect x="22" y="94" width="3" height="14" fill="#ff5577"/><text x="36" y="104" fill="#c4d8e8" font-size="13" font-family="ui-monospace,Menlo,monospace">sysctl: rp_filter, syncookies</text><rect x="22" y="122" width="3" height="14" fill="#ff5577"/><text x="36" y="132" fill="#c4d8e8" font-size="13" font-family="ui-monospace,Menlo,monospace">Disable unused modules</text><rect x="22" y="150" width="3" height="14" fill="#ff5577"/><text x="36" y="160" fill="#c4d8e8" font-size="13" font-family="ui-monospace,Menlo,monospace">AppArmor / SELinux enforce</text><rect x="22" y="178" width="3" height="14" fill="#ff5577"/><text x="36" y="188" fill="#c4d8e8" font-size="13" font-family="ui-monospace,Menlo,monospace">kernel.kptr_restrict=2</text><circle cx="378" cy="34" r="5" fill="#ff5577"><animate attributeName="opacity" values="1;0.25;1" dur="1.6s" repeatCount="indefinite"/></circle></g><g transform="translate(570,700)"><rect x="-8" y="-8" width="416" height="246" rx="20" fill="#9ad0ff" opacity="0.10" filter="url(#softglow)"><animate attributeName="opacity" values="0.06;0.18;0.06" dur="3.5s" repeatCount="indefinite"/></rect><rect width="400" height="230" rx="16" fill="#06122a" stroke="#9ad0ff" stroke-width="2"/><rect x="0" y="0" width="400" height="4" rx="2" fill="#9ad0ff"/><g stroke="#9ad0ff" stroke-width="1.6" fill="none" opacity="0.9"><path d="M0 18 V8 H10"/><path d="M390 8 H400 V18"/><path d="M400 212 V230 H390"/><path d="M10 230 H0 V212"/></g><rect x="18" y="22" width="44" height="26" rx="6" fill="#9ad0ff" opacity="0.18" stroke="#9ad0ff" stroke-width="1"/><text x="40" y="40" text-anchor="middle" fill="#9ad0ff" font-size="14" font-weight="700" font-family="ui-monospace,Menlo,monospace">07</text><text x="76" y="40" fill="#e7f6ff" font-size="18" font-weight="700" letter-spacing="2" font-family="ui-sans-serif,Inter,system-ui">AUDIT & LOGS</text><text x="76" y="58" fill="#9ad0ff" font-size="10" letter-spacing="3" font-family="ui-monospace,Menlo,monospace">VISIBILITY LAYER</text><line x1="18" x2="382" y1="78" y2="78" stroke="#9ad0ff" stroke-width="1" opacity="0.35"/><rect x="22" y="94" width="3" height="14" fill="#9ad0ff"/><text x="36" y="104" fill="#c4d8e8" font-size="13" font-family="ui-monospace,Menlo,monospace">auditd + auditctl rules</text><rect x="22" y="122" width="3" height="14" fill="#9ad0ff"/><text x="36" y="132" fill="#c4d8e8" font-size="13" font-family="ui-monospace,Menlo,monospace">journald persistent</text><rect x="22" y="150" width="3" height="14" fill="#9ad0ff"/><text x="36" y="160" fill="#c4d8e8" font-size="13" font-family="ui-monospace,Menlo,monospace">Forward to Loki / Wazuh</text><rect x="22" y="178" width="3" height="14" fill="#9ad0ff"/><text x="36" y="188" fill="#c4d8e8" font-size="13" font-family="ui-monospace,Menlo,monospace">Daily lynis audit</text><circle cx="378" cy="34" r="5" fill="#9ad0ff"><animate attributeName="opacity" values="1;0.25;1" dur="1.6s" repeatCount="indefinite"/></circle></g><g transform="translate(120,700)"><rect x="-8" y="-8" width="416" height="246" rx="20" fill="#c69bff" opacity="0.10" filter="url(#softglow)"><animate attributeName="opacity" values="0.06;0.18;0.06" dur="3.5s" repeatCount="indefinite"/></rect><rect width="400" height="230" rx="16" fill="#06122a" stroke="#c69bff" stroke-width="2"/><rect x="0" y="0" width="400" height="4" rx="2" fill="#c69bff"/><g stroke="#c69bff" stroke-width="1.6" fill="none" opacity="0.9"><path d="M0 18 V8 H10"/><path d="M390 8 H400 V18"/><path d="M400 212 V230 H390"/><path d="M10 230 H0 V212"/></g><rect x="18" y="22" width="44" height="26" rx="6" fill="#c69bff" opacity="0.18" stroke="#c69bff" stroke-width="1"/><text x="40" y="40" text-anchor="middle" fill="#c69bff" font-size="14" font-weight="700" font-family="ui-monospace,Menlo,monospace">08</text><text x="76" y="40" fill="#e7f6ff" font-size="18" font-weight="700" letter-spacing="2" font-family="ui-sans-serif,Inter,system-ui">BACKUPS & RECOVERY</text><text x="76" y="58" fill="#c69bff" font-size="10" letter-spacing="3" font-family="ui-monospace,Menlo,monospace">RESILIENCE LAYER</text><line x1="18" x2="382" y1="78" y2="78" stroke="#c69bff" stroke-width="1" opacity="0.35"/><rect x="22" y="94" width="3" height="14" fill="#c69bff"/><text x="36" y="104" fill="#c4d8e8" font-size="13" font-family="ui-monospace,Menlo,monospace">restic / borg nightly</text><rect x="22" y="122" width="3" height="14" fill="#c69bff"/><text x="36" y="132" fill="#c4d8e8" font-size="13" font-family="ui-monospace,Menlo,monospace">Off-site replica</text><rect x="22" y="150" width="3" height="14" fill="#c69bff"/><text x="36" y="160" fill="#c4d8e8" font-size="13" font-family="ui-monospace,Menlo,monospace">Encrypted at rest</text><rect x="22" y="178" width="3" height="14" fill="#c69bff"/><text x="36" y="188" fill="#c4d8e8" font-size="13" font-family="ui-monospace,Menlo,monospace">Test restore monthly</text><circle cx="378" cy="34" r="5" fill="#c69bff"><animate attributeName="opacity" values="1;0.25;1" dur="1.6s" repeatCount="indefinite"/></circle></g>
<g transform="translate(820,470)">
  <polygon points="140,0 280,55 140,110 0,55" fill="#06122a" stroke="#f5d547" stroke-width="2"/>
  <polygon points="140,0 280,55 140,110 0,55" fill="#f5d547" opacity="0.06"/>
  <text x="140" y="50" text-anchor="middle" fill="#f5d547" font-size="11" letter-spacing="4" font-family="ui-monospace,Menlo,monospace">CHECKPOINT</text>
  <text x="140" y="72" text-anchor="middle" fill="#e7f6ff" font-size="14" font-weight="700">lynis audit · score &gt; 80?</text>
  <circle cx="270" cy="55" r="4" fill="#7cf0a1"><animate attributeName="opacity" values="1;0.2;1" dur="1.2s" repeatCount="indefinite"/></circle>
</g>
<g transform="translate(760,1060)">
  <rect x="-8" y="-8" width="416" height="116" rx="20" fill="#7cf0a1" opacity="0.12" filter="url(#softglow)"><animate attributeName="opacity" values="0.08;0.22;0.08" dur="2.5s" repeatCount="indefinite"/></rect>
  <rect width="400" height="100" rx="14" fill="#06122a" stroke="#7cf0a1" stroke-width="2.5"/>
  <path d="M30 50 l14 14 l28 -32" stroke="#7cf0a1" stroke-width="3" fill="none" stroke-linecap="round" stroke-linejoin="round"/>
  <text x="200" y="44" text-anchor="middle" fill="#7cf0a1" font-size="12" letter-spacing="5" font-family="ui-monospace,Menlo,monospace">FINAL STATE</text>
  <text x="200" y="70" text-anchor="middle" fill="#e7f6ff" font-size="18" font-weight="700" letter-spacing="3">SERVER HARDENED · MONITORED · BACKED UP</text>
</g><g>
  <path d="M 960 140 V 170 H 320 V 215" fill="none" stroke="#2a72b8" stroke-width="2" opacity="0.55"/>
  <path d="M 960 140 V 170 H 320 V 215" fill="none" stroke="#00d4ff" stroke-width="2.2" stroke-dasharray="10 14" marker-end="url(#ah)">
    <animate attributeName="stroke-dashoffset" from="0" to="-240" dur="2.5s" repeatCount="indefinite"/>
  </path>
</g><g>
  <path d="M 525 335 H 565" fill="none" stroke="#2a72b8" stroke-width="2" opacity="0.55"/>
  <path d="M 525 335 H 565" fill="none" stroke="#00d4ff" stroke-width="2.2" stroke-dasharray="10 14" marker-end="url(#ah)">
    <animate attributeName="stroke-dashoffset" from="0" to="-240" dur="2.5s" repeatCount="indefinite"/>
  </path>
</g><g>
  <path d="M 975 335 H 1015" fill="none" stroke="#2a72b8" stroke-width="2" opacity="0.55"/>
  <path d="M 975 335 H 1015" fill="none" stroke="#00d4ff" stroke-width="2.2" stroke-dasharray="10 14" marker-end="url(#ah)">
    <animate attributeName="stroke-dashoffset" from="0" to="-240" dur="2.5s" repeatCount="indefinite"/>
  </path>
</g><g>
  <path d="M 1425 335 H 1465" fill="none" stroke="#2a72b8" stroke-width="2" opacity="0.55"/>
  <path d="M 1425 335 H 1465" fill="none" stroke="#00d4ff" stroke-width="2.2" stroke-dasharray="10 14" marker-end="url(#ah)">
    <animate attributeName="stroke-dashoffset" from="0" to="-240" dur="2.5s" repeatCount="indefinite"/>
  </path>
</g><g>
  <path d="M 1670 455 V 695" fill="none" stroke="#2a72b8" stroke-width="2" opacity="0.55"/>
  <path d="M 1670 455 V 695" fill="none" stroke="#00d4ff" stroke-width="2.2" stroke-dasharray="10 14" marker-end="url(#ah)">
    <animate attributeName="stroke-dashoffset" from="0" to="-240" dur="2.5s" repeatCount="indefinite"/>
  </path>
</g><g>
  <path d="M 1465 815 H 1425" fill="none" stroke="#2a72b8" stroke-width="2" opacity="0.55"/>
  <path d="M 1465 815 H 1425" fill="none" stroke="#00d4ff" stroke-width="2.2" stroke-dasharray="10 14" marker-end="url(#ah)">
    <animate attributeName="stroke-dashoffset" from="0" to="-240" dur="2.5s" repeatCount="indefinite"/>
  </path>
</g><g>
  <path d="M 1015 815 H 975" fill="none" stroke="#2a72b8" stroke-width="2" opacity="0.55"/>
  <path d="M 1015 815 H 975" fill="none" stroke="#00d4ff" stroke-width="2.2" stroke-dasharray="10 14" marker-end="url(#ah)">
    <animate attributeName="stroke-dashoffset" from="0" to="-240" dur="2.5s" repeatCount="indefinite"/>
  </path>
</g><g>
  <path d="M 565 815 H 525" fill="none" stroke="#2a72b8" stroke-width="2" opacity="0.55"/>
  <path d="M 565 815 H 525" fill="none" stroke="#00d4ff" stroke-width="2.2" stroke-dasharray="10 14" marker-end="url(#ah)">
    <animate attributeName="stroke-dashoffset" from="0" to="-240" dur="2.5s" repeatCount="indefinite"/>
  </path>
</g><g>
  <path d="M 320 695 V 540 H 820 V 480" fill="none" stroke="#2a72b8" stroke-width="2" opacity="0.55"/>
  <path d="M 320 695 V 540 H 820 V 480" fill="none" stroke="#00d4ff" stroke-width="2.2" stroke-dasharray="10 14" marker-end="url(#ah)">
    <animate attributeName="stroke-dashoffset" from="0" to="-240" dur="2.5s" repeatCount="indefinite"/>
  </path>
</g><g>
  <path d="M 960 580 V 1052" fill="none" stroke="#2a72b8" stroke-width="2" opacity="0.55"/>
  <path d="M 960 580 V 1052" fill="none" stroke="#00d4ff" stroke-width="2.2" stroke-dasharray="10 14" marker-end="url(#ah)">
    <animate attributeName="stroke-dashoffset" from="0" to="-240" dur="2.5s" repeatCount="indefinite"/>
  </path>
</g><text x="520" y="318" fill="#6e9cc0" font-size="11" letter-spacing="3" font-family="ui-monospace,Menlo,monospace">NEXT</text><text x="970" y="318" fill="#6e9cc0" font-size="11" letter-spacing="3" font-family="ui-monospace,Menlo,monospace">NEXT</text><text x="1420" y="318" fill="#6e9cc0" font-size="11" letter-spacing="3" font-family="ui-monospace,Menlo,monospace">NEXT</text><text x="1685" y="575" fill="#6e9cc0" font-size="11" letter-spacing="3" font-family="ui-monospace,Menlo,monospace">PIVOT</text><text x="1420" y="798" fill="#6e9cc0" font-size="11" letter-spacing="3" font-family="ui-monospace,Menlo,monospace">BACK</text><text x="970" y="798" fill="#6e9cc0" font-size="11" letter-spacing="3" font-family="ui-monospace,Menlo,monospace">BACK</text><text x="520" y="798" fill="#6e9cc0" font-size="11" letter-spacing="3" font-family="ui-monospace,Menlo,monospace">BACK</text><text x="340" y="530" fill="#6e9cc0" font-size="11" letter-spacing="3" font-family="ui-monospace,Menlo,monospace">VERIFY</text><text x="978" y="820" fill="#6e9cc0" font-size="11" letter-spacing="3" font-family="ui-monospace,Menlo,monospace">PASS</text><circle r="4" fill="#00d4ff" filter="url(#glow)"><animateMotion dur="6s" begin="0s" repeatCount="indefinite" rotate="auto" path="M 960 140 V 170 H 320 V 335 H 1670 V 700 H 320 V 540 H 820 V 1052"/></circle><circle r="4" fill="#00d4ff" filter="url(#glow)"><animateMotion dur="6s" begin="1.2s" repeatCount="indefinite" rotate="auto" path="M 960 140 V 170 H 320 V 335 H 1670 V 700 H 320 V 540 H 820 V 1052"/></circle><circle r="4" fill="#00d4ff" filter="url(#glow)"><animateMotion dur="6s" begin="2.4s" repeatCount="indefinite" rotate="auto" path="M 960 140 V 170 H 320 V 335 H 1670 V 700 H 320 V 540 H 820 V 1052"/></circle><circle r="4" fill="#00d4ff" filter="url(#glow)"><animateMotion dur="6s" begin="3.6s" repeatCount="indefinite" rotate="auto" path="M 960 140 V 170 H 320 V 335 H 1670 V 700 H 320 V 540 H 820 V 1052"/></circle><circle r="4" fill="#00d4ff" filter="url(#glow)"><animateMotion dur="6s" begin="4.8s" repeatCount="indefinite" rotate="auto" path="M 960 140 V 170 H 320 V 335 H 1670 V 700 H 320 V 540 H 820 V 1052"/></circle><text x="960" y="1188" text-anchor="middle" fill="#3d6a8a" font-size="11" letter-spacing="6" font-family="ui-monospace,Menlo,monospace">// blogify · jalalnasser.com · sysops field manual</text>
</svg>